PathFileType	4	(X/Y/Z)	D:\TRACE\v60_Jaco2_6-2-23\JustArmDRS_Motion2_1-Unnamed.trc
DataRate	CameraRate	NumFrames	NumMarkers	Units	OrigDataRate	OrigDataStartFrame	OrigNumFrames
100.00	100.00	      33	0	mm	100.00	3600	      7199
Frame#	Time	
		

3600	35.990	-64.17226	1020.48560	-521.98352							-55.48915	1271.51660	-338.15286										-56.30334	1102.06995	-216.62953										-43.84401	1057.84387	-188.58095										0.22019	1064.89673	-769.40015	-0.09074	1307.83508	-383.81268	
3601	36.000	-62.45259	1020.05060	-522.28278																			-55.14547	1101.87292	-216.94948										-42.59146	1057.43872	-188.61484										1.64706	1064.89294	-770.18372	
3602	36.010	-61.43748	1020.05835	-522.53204																			-54.13080	1101.70972	-217.25969																						2.03449	1064.84460	-770.82324	
3603	36.020	-60.54689	1019.71014	-522.65326																			-53.53446	1101.68457	-217.39455										-52.27410	1271.34937	-339.02512										3.28624	1064.65771	-770.28375	-1237.86914	-581.70966	-2480.71387	
3604	36.030	-59.68591	1019.45258	-522.79218																			-53.47615	1101.75916	-217.44646										-50.98734	1271.40308	-339.42749										4.08665	1063.97278	-770.53632	-1237.50244	-581.66846	-2481.51807	
3605	36.040	-58.56205	1019.53516	-523.08820																			-50.98021	1101.45313	-217.91484	
3606	36.050	-57.54947	1019.39441	-523.29584							6.59383	1063.41589	-770.29559										-51.01496	1101.54761	-218.08498										-1238.70227	-582.71063	-2483.48364	
3607	36.060	-56.66374	1018.89160	-523.37372																			-50.49998	1101.20703	-218.15251																						-49.88706	1270.89783	-340.37512	
3608	36.070	-55.89074	1018.91840	-523.56897																			-48.80855	1100.84509	-218.42760																						-46.52670	1270.85620	-340.88779	
3609	36.080	-54.87803	1018.58057	-523.72284																			-48.52468	1101.01379	-218.66292							-1239.75122	-583.62396	-2485.48633	
3610	36.090	-53.80178	1018.04498	-523.84296																			-47.51215	1100.40234	-218.69173																						-46.42217	1270.37280	-341.14868	
3611	36.100	-52.93967	1017.80676	-524.06860																			-47.14783	1100.26013	-219.02696				-1239.08777	-582.56879	-2482.88354																-42.97795	1269.99231	-341.63321	
3612	36.110	-52.16810	1017.50433	-524.63422																			-45.29848	1099.88379	-219.48843																						-42.71426	1269.48706	-341.84677	
3613	36.120	-51.89278	1017.37073	-524.99646																			-45.33089	1099.92065	-219.66887	
3614	36.130	-50.57456	1016.60114	-525.13971																			-43.93832	1099.23889	-219.52567							-40.94862	1269.09009	-343.20111	
3615	36.140	-50.07458	1016.07788	-525.35419																			-42.63953	1098.60693	-220.06032										-22.71347	1297.97131	-419.67429										-1239.36975	-584.06989	-2485.55835	
3616	36.150	-49.50962	1015.32666	-526.02490																			-42.31067	1098.19348	-220.49669										-21.72558	1297.15479	-420.26050	
3617	36.160	-48.74229	1014.75757	-526.39178																			-41.33864	1097.38367	-220.78064																						15.11841	1303.19727	-389.02551	
3618	36.170																						-40.28371	1097.28992	-220.92076										-39.11154	1266.81665	-344.73853													-8.87003	1093.39990	-528.36548	
3619	36.180	-46.99205	1013.65894	-526.96271																			-39.14231	1096.44263	-221.27080										-36.58226	1266.48914	-345.40506										15.59108	1302.84644	-390.82092	-6.49029	1092.80945	-527.74377	
3620	36.190	-45.57987	1012.75830	-527.05481																			-38.95947	1096.17456	-221.41335																						16.27452	1302.34766	-391.43225	-5.48882	1092.02258	-527.69659										-36.25018	899.44434	-1083.22327	
3621	36.200																						-37.34768	1095.50317	-221.77939										-17.27457	1294.48254	-422.00098													-5.55326	1091.70398	-528.90802										-34.68766	900.07886	-1083.29504	
3622	36.210										-44.04153	1011.11108	-527.79572										-36.00179	1094.79358	-222.15286																									-4.12793	1090.89575	-528.73920										-33.41402	901.20142	-1083.55273	
3623	36.220										-42.61557	1010.56683	-527.99487										-36.48247	1094.32080	-222.61885																						19.38253	1300.64111	-392.51682	-2.80612	1090.15405	-528.62219	
3624	36.230																						-34.67484	1093.72742	-222.61864																						21.89100	1299.50720	-391.41260	-2.27562	1089.57751	-529.42682							-31.57699	1263.71021	-347.94489	-31.93261	903.41223	-1084.45618	
3625	36.240										-40.90201	1008.90479	-528.29108										-32.67424	1093.12549	-222.76126																									-0.56243	1088.92236	-529.27362										-30.74336	905.19470	-1085.14490	
3626	36.250										-39.89175	1008.60187	-528.49017																-31.83891	1262.94202	-348.53281																21.78287	1299.08789	-394.05029	-0.20561	1088.55896	-529.80792							1112.44153	848.66412	280.62845	-29.88834	905.78998	-1085.46667	
3627	36.260										-39.03498	1008.05756	-528.63666										-30.61421	1092.50574	-223.01549				-27.78085	1261.83557	-348.84744																24.84411	1298.26599	-392.48407	1.17288	1088.14917	-530.05627							1112.34412	848.84338	280.30365	-29.15526	907.50769	-1085.77771	
3628	36.270																						-29.32311	1092.22424	-223.00945																						26.08285	1297.58948	-392.54565	2.97510	1087.63208	-529.51355										-27.11461	908.45715	-1085.71155	
3629	36.280										-27.43587	1261.19800	-348.83392										-28.59434	1091.77063	-222.94913				-35.49917	1006.75470	-527.99200	1112.42590	848.92322	280.11172													26.45362	1297.56042	-393.63278	4.20370	1087.16797	-529.62085										-26.03207	909.85522	-1085.67383	
3630	36.290																						-27.00970	1091.07861	-222.76425				-33.96877	1006.36377	-527.91809																27.37250	1297.60413	-393.84549	4.98062	1086.62598	-529.85388										-25.06428	911.38507	-1085.60083	
3631	36.300																						-25.94180	1091.17798	-222.86484				-33.31240	1006.15118	-528.00433																			6.91213	1086.28674	-529.97205	
3632	36.310										30.35384	1296.77698	-393.00977										-24.61622	1090.79480	-222.88286				-32.34369	1005.84625	-528.08569	868.53955	709.60516	11.18015													-23.21762	914.34338	-1085.17053	6.77603	1086.52502	-530.30896	
